<?xml version="1.0" encoding="UTF-8"?>
<svg width="189px" height="48px" viewBox="0 0 189 48" version="1.1" xmlns="http://www.w3.org/2000/svg" xmlns:xlink="http://www.w3.org/1999/xlink">
    <!-- Generator: Sketch 48.2 (47327) - http://www.bohemiancoding.com/sketch -->
    <title>logo</title>
    <desc>Created with Sketch.</desc>
    <defs>
        <polygon id="path-1" points="0 0.846 46.583 0.846 46.583 47.4317 0 47.4317"></polygon>
        <polygon id="path-3" points="0.0108 0.846 46.5728 0.846 46.5728 47.0604 0.0108 47.0604"></polygon>
        <polygon id="path-5" points="0.552873804 0.2484 11.6377 0.2484 11.6377 16 0.552873804 16"></polygon>
        <polygon id="path-7" points="0 5.77085859e-05 75.09 5.77085859e-05 75.09 12.9725987 0 12.9725987"></polygon>
    </defs>
    <g id="Page-1" stroke="none" stroke-width="1" fill="none" fill-rule="evenodd">
        <g id="logo">
            <g id="Page-1">
                <g id="Group-3" transform="translate(0.000000, 0.154300)">
                    <mask id="mask-2" fill="white">
                        <use xlink:href="#path-1"></use>
                    </mask>
                    <g id="Clip-2"></g>
                    <path d="M46.583,24.1387 C46.583,37.0037 36.156,47.4317 23.292,47.4317 C10.428,47.4317 0,37.0037 0,24.1387 C0,11.2747 10.428,0.8457 23.292,0.8457 C36.156,0.8457 46.583,11.2747 46.583,24.1387" id="Fill-1" fill="#FEFEFE" mask="url(#mask-2)"></path>
                </g>
                <g id="Group-6" transform="translate(0.000000, 0.154300)">
                    <mask id="mask-4" fill="white">
                        <use xlink:href="#path-3"></use>
                    </mask>
                    <g id="Clip-5"></g>
                    <path d="M37.7988,20.2314 C41.1498,19.0684 43.3468,22.3944 45.9298,21.6194 C43.4248,18.9574 41.3878,15.9324 41.6558,12.4434 C41.6738,12.2404 41.4888,12.1254 41.3128,12.2484 C40.0378,13.1314 39.1428,14.5964 38.8688,16.2464 C37.0938,15.1074 35.0188,14.9454 33.3048,15.6474 C35.0698,16.8854 36.5958,18.4394 37.7988,20.2314 M34.0738,9.9394 C32.3648,10.0614 30.8818,10.6484 29.6818,11.6254 C30.1938,10.1814 30.8408,8.9184 31.6578,7.6934 C29.4848,7.9224 27.6678,8.7184 26.3408,10.0784 L25.3028,7.3574 L27.6068,5.3204 L24.5238,5.1024 L23.2918,2.2344 L22.0608,5.1024 L18.9748,5.3204 L21.2798,7.3574 L20.2418,10.0784 C18.9148,8.7184 17.0968,7.9224 14.9258,7.6934 C15.7438,8.9184 16.3908,10.1814 16.9008,11.6254 C15.7018,10.6484 14.2188,10.0614 12.5108,9.9394 C13.5348,11.2554 14.4428,12.6634 15.1158,14.1694 C15.1908,14.3414 15.3538,14.3964 15.5318,14.3074 C17.8678,13.1484 20.5038,12.4924 23.2918,12.4924 C26.0798,12.4924 28.7148,13.1484 31.0528,14.3074 C31.2298,14.3964 31.3928,14.3414 31.4688,14.1694 C32.1408,12.6634 33.0488,11.2554 34.0738,9.9394 M19.1728,18.0974 C19.6258,17.6404 20.5828,17.6614 21.5738,18.0284 C21.6158,17.5334 20.7328,16.9944 19.8498,16.9944 C19.2088,16.9944 18.8898,17.2114 18.8898,17.5244 C18.8898,17.7284 18.9578,17.9004 19.1728,18.0974 M26.7358,16.9944 C26.2148,16.9944 25.6088,17.1524 25.2248,17.5804 C25.1848,17.6954 25.1848,17.8664 25.2418,17.9814 C26.1818,17.6614 27.0118,17.6484 27.4118,18.0974 C27.6268,17.9004 27.6948,17.7284 27.6948,17.5244 C27.6948,17.2114 27.3768,16.9944 26.7358,16.9944 M23.2918,13.5394 C21.1308,13.5394 19.3178,14.7624 18.8438,16.3424 C18.8068,16.4634 18.8578,16.5424 18.9968,16.4794 C19.3868,16.3034 19.8288,16.2194 20.3108,16.2194 C21.1918,16.2194 21.9688,16.5444 22.4288,17.1054 C22.6318,17.7774 22.6488,18.7494 22.4188,19.3034 C22.0558,19.2214 21.9248,18.9404 21.5698,18.9404 C21.2158,18.9404 20.9418,19.1904 20.3408,19.1904 C19.7388,19.1904 19.6688,18.9044 19.2748,18.9044 C18.8088,18.9044 18.7228,19.3854 18.7228,19.9254 C18.7228,22.3344 20.9368,25.6494 23.2918,25.6494 C25.6478,25.6494 27.8608,22.3344 27.8608,19.9254 C27.8608,19.3854 27.7498,18.9224 27.2638,18.8584 C27.0238,19.0334 26.8008,19.1904 26.2438,19.1904 C25.6428,19.1904 25.4768,18.9404 25.1228,18.9404 C24.6948,18.9404 24.7388,19.8424 24.2278,19.8934 C23.8918,19.0794 23.8738,18.0354 24.1558,17.1054 C24.6158,16.5444 25.3928,16.2194 26.2748,16.2194 C26.7558,16.2194 27.2008,16.3034 27.5858,16.4794 C27.7268,16.5424 27.7758,16.4634 27.7388,16.3424 C27.2648,14.7624 25.4538,13.5394 23.2918,13.5394 M13.2788,15.6474 C11.5658,14.9454 9.4888,15.1074 7.7148,16.2464 C7.4408,14.5964 6.5458,13.1314 5.2698,12.2484 C5.0938,12.1254 4.9108,12.2404 4.9258,12.4434 C5.1958,15.9324 3.1578,18.9574 0.6518,21.6194 C3.2348,22.3944 5.4338,19.0684 8.7818,20.2314 C9.9868,18.4394 11.5138,16.8854 13.2788,15.6474 M46.5478,25.4154 C46.5178,25.9714 46.4698,26.5254 46.4008,27.0704 C43.7648,27.5084 42.8208,25.1574 40.1208,25.2734 C40.2818,25.8474 40.4128,26.4304 40.5138,27.0274 C42.7408,27.0254 43.6398,29.1074 46.1158,28.8024 C45.9858,29.4384 45.8298,30.0664 45.6488,30.6844 C43.6888,30.8774 42.9988,28.9304 40.7328,28.9834 C40.7508,29.3074 40.7618,29.6324 40.7618,29.9614 C40.7618,30.1444 40.7558,30.3264 40.7508,30.5064 C42.6848,30.4824 43.3128,32.2694 45.1548,32.1854 C44.9248,32.8124 44.6678,33.4244 44.3848,34.0234 C43.0608,33.9524 42.6058,32.2544 40.5908,32.3884 C40.5308,32.8234 40.4538,33.2544 40.3618,33.6804 C42.1118,33.5554 42.4888,35.1684 43.7408,35.2964 C43.4228,35.8794 43.0788,36.4474 42.7128,36.9984 C41.9678,36.6004 41.3258,35.3994 39.9188,35.3264 C40.0628,34.8824 40.1908,34.4304 40.2978,33.9704 C39.0498,33.9704 37.6218,33.4844 36.4238,32.3934 C36.8118,30.1854 33.3818,27.9354 33.3818,26.3144 C33.3818,24.5594 34.2708,23.5854 34.2708,21.2174 C34.2708,19.4584 33.4158,17.5504 32.1288,16.2464 C31.8818,15.9934 31.6238,15.7884 31.3308,15.6044 C32.5148,17.0684 33.4238,18.8034 33.4238,20.8154 C33.4238,23.0454 32.3838,24.2254 32.3838,26.2844 C32.3838,28.3414 35.3978,30.1264 35.3978,32.2474 C35.3978,33.0844 35.1298,33.8984 34.2508,35.5024 C35.6018,36.8534 37.3638,37.5894 38.5008,37.5894 C38.8698,37.5894 39.0688,37.4784 39.1988,37.1884 C39.3128,36.9374 39.4198,36.6844 39.5228,36.4284 C40.7468,36.4774 41.3078,37.5894 41.9838,38.0354 C41.6138,38.5344 41.2228,39.0164 40.8128,39.4824 C40.3588,38.9794 39.7488,38.1334 38.8558,37.8984 C38.6948,38.2094 38.5258,38.5154 38.3478,38.8144 C39.1178,39.0254 39.6448,39.8014 40.0508,40.3124 C39.6118,40.7654 39.1528,41.2034 38.6798,41.6214 C38.3818,41.1614 37.9188,40.5724 37.3988,40.2554 C37.2088,40.5174 37.0088,40.7694 36.8028,41.0144 C37.2448,41.3144 37.6338,41.8514 37.8868,42.2874 C37.3378,42.7314 36.7688,43.1504 36.1808,43.5414 C35.8898,41.1764 32.6608,39.5524 33.5318,36.8094 C33.2458,37.2934 32.9058,37.8984 32.9058,38.6274 C32.9058,40.6124 35.0208,42.1894 35.1918,44.1634 C34.7518,44.4254 34.3028,44.6744 33.8478,44.9054 C33.7708,42.7364 31.5278,40.3614 31.5278,38.5804 C31.5278,36.5914 34.1328,34.5934 34.1328,32.2474 C34.1328,29.9004 31.1278,28.2734 31.1278,26.2104 C31.1278,24.1514 32.4058,22.9664 32.4058,20.3244 C32.4058,18.3884 31.4868,16.4314 30.0688,15.1784 C29.8168,14.9594 29.5698,14.7824 29.2718,14.6294 C30.6108,16.2334 31.3868,17.6914 31.3868,19.9024 C31.3868,22.3864 29.9238,23.7644 29.9238,26.1954 C29.9238,28.6294 32.8718,29.9814 32.8718,32.2474 C32.8718,34.5134 30.1268,36.4274 30.1268,38.7544 C30.1268,40.8724 32.5448,42.9894 32.5808,45.5024 C32.0528,45.7334 31.5128,45.9454 30.9658,46.1344 C31.2738,43.5954 28.5508,40.9764 28.5508,38.9034 C28.5508,36.6374 31.3968,34.6894 31.3968,32.2474 C31.3968,29.8054 28.5038,28.6674 28.5038,26.1614 C28.5038,23.6544 30.2788,22.2644 30.2788,19.4954 C30.2788,17.3354 29.2138,15.3944 27.6558,14.1914 C27.6228,14.1654 27.5908,14.1414 27.5578,14.1154 C27.4118,14.0074 27.2888,14.1384 27.3928,14.2674 C28.4968,15.6444 29.0868,17.0374 29.0868,19.0974 C29.0868,21.6324 27.0458,23.6904 27.0458,26.1454 C27.0458,29.0414 29.7838,29.8694 29.7838,32.2474 C29.7838,34.6244 26.8468,36.5244 26.8468,39.0494 C26.8468,41.3884 29.6278,43.9864 29.1508,46.6874 C28.5938,46.8334 28.0278,46.9564 27.4548,47.0604 C27.9758,43.6964 25.2498,41.2794 25.2498,39.0804 C25.2498,36.6974 28.2908,34.5754 28.2908,32.2474 C28.2908,30.0534 26.1078,29.3354 25.8218,27.0874 C25.7818,26.7824 25.5358,26.5554 25.1958,26.6144 C24.7538,26.6934 24.1848,26.9854 23.2918,26.9854 C22.3988,26.9854 21.8318,26.6934 21.3868,26.6144 C21.0488,26.5554 20.8018,26.7824 20.7618,27.0874 C20.4778,29.3354 18.2918,30.0534 18.2918,32.2474 C18.2918,34.5754 21.3338,36.6974 21.3338,39.0804 C21.3338,41.2794 18.6088,43.6964 19.1288,47.0604 C18.5558,46.9564 17.9908,46.8334 17.4338,46.6874 C16.9568,43.9864 19.7368,41.3884 19.7368,39.0494 C19.7368,36.5244 16.7988,34.6244 16.7988,32.2474 C16.7988,29.8694 19.5388,29.0414 19.5388,26.1454 C19.5388,23.6904 17.4978,21.6324 17.4978,19.0974 C17.4978,17.0374 18.0878,15.6444 19.1918,14.2674 C19.2938,14.1384 19.1738,14.0074 19.0268,14.1154 C18.9938,14.1414 18.9608,14.1654 18.9268,14.1914 C17.3688,15.3944 16.3048,17.3354 16.3048,19.4954 C16.3048,22.2644 18.0808,23.6544 18.0808,26.1614 C18.0808,28.6674 15.1878,29.8054 15.1878,32.2474 C15.1878,34.6894 18.0328,36.6374 18.0328,38.9034 C18.0328,40.9764 15.3108,43.5954 15.6178,46.1344 C15.0698,45.9454 14.5318,45.7334 14.0018,45.5024 C14.0378,42.9894 16.4568,40.8724 16.4568,38.7544 C16.4568,36.4274 13.7138,34.5134 13.7138,32.2474 C13.7138,29.9814 16.6608,28.6294 16.6608,26.1954 C16.6608,23.7644 15.1978,22.3864 15.1978,19.9024 C15.1978,17.6914 15.9738,16.2334 17.3118,14.6294 C17.0138,14.7824 16.7668,14.9594 16.5158,15.1784 C15.0968,16.4314 14.1768,18.3884 14.1768,20.3244 C14.1768,22.9664 15.4548,24.1514 15.4548,26.2104 C15.4548,28.2734 12.4518,29.9004 12.4518,32.2474 C12.4518,34.5934 15.0558,36.5914 15.0558,38.5804 C15.0558,40.3614 12.8128,42.7364 12.7368,44.9054 C12.2798,44.6744 11.8328,44.4254 11.3928,44.1634 C11.5618,42.1894 13.6788,40.6124 13.6788,38.6274 C13.6788,37.8984 13.3378,37.2934 13.0508,36.8094 C13.9228,39.5524 10.6928,41.1764 10.4028,43.5414 C9.8138,43.1504 9.2448,42.7314 8.6948,42.2874 C8.9488,41.8514 9.3378,41.3144 9.7788,41.0144 C9.5738,40.7694 9.3738,40.5174 9.1828,40.2554 C8.6628,40.5724 8.2018,41.1614 7.9028,41.6214 C7.4278,41.2034 6.9698,40.7654 6.5318,40.3124 C6.9398,39.8014 7.4658,39.0254 8.2358,38.8144 C8.0568,38.5154 7.8878,38.2094 7.7278,37.8984 C6.8338,38.1334 6.2228,38.9794 5.7698,39.4824 C5.3608,39.0164 4.9688,38.5344 4.5968,38.0354 C5.2758,37.5894 5.8358,36.4774 7.0608,36.4284 C7.1618,36.6844 7.2698,36.9374 7.3838,37.1884 C7.5168,37.4784 7.7148,37.5894 8.0828,37.5894 C9.2198,37.5894 10.9808,36.8534 12.3338,35.5024 C11.4538,33.8984 11.1868,33.0844 11.1868,32.2474 C11.1868,30.1264 14.1988,28.3414 14.1988,26.2844 C14.1988,24.2254 13.1598,23.0454 13.1598,20.8154 C13.1598,18.8034 14.0688,17.0684 15.2538,15.6044 C14.9598,15.7884 14.7028,15.9934 14.4538,16.2464 C13.1658,17.5504 12.3118,19.4584 12.3118,21.2174 C12.3118,23.5854 13.2008,24.5594 13.2008,26.3144 C13.2008,27.9354 9.7728,30.1854 10.1598,32.3934 C8.9638,33.4844 7.5338,33.9704 6.2848,33.9704 C6.3938,34.4304 6.5208,34.8824 6.6628,35.3264 C5.2568,35.3994 4.6128,36.6004 3.8698,36.9984 C3.5048,36.4474 3.1608,35.8794 2.8418,35.2964 C4.0938,35.1684 4.4708,33.5554 6.2208,33.6804 C6.1298,33.2544 6.0518,32.8234 5.9908,32.3884 C3.9788,32.2544 3.5208,33.9524 2.1978,34.0234 C1.9158,33.4244 1.6598,32.8124 1.4278,32.1854 C3.2698,32.2714 3.8988,30.4824 5.8318,30.5064 C5.8258,30.3264 5.8218,30.1444 5.8218,29.9614 C5.8218,29.6324 5.8338,29.3074 5.8508,28.9834 C3.5838,28.9304 2.8938,30.8774 0.9338,30.6844 C0.7538,30.0664 0.5968,29.4384 0.4658,28.8024 C2.9438,29.1074 3.8418,27.0254 6.0698,27.0274 C6.1698,26.4304 6.3008,25.8474 6.4628,25.2734 C3.7618,25.1574 2.8178,27.5084 0.1828,27.0704 C0.1128,26.5254 0.0648,25.9714 0.0348,25.4154 C3.0998,25.7584 4.2488,23.2384 7.0388,23.5474 C7.3018,22.8804 7.6078,22.2344 7.9518,21.6134 C4.4528,21.0004 3.2658,23.9234 0.0108,23.4744 C0.3608,10.9174 10.6508,0.8454 23.2918,0.8454 C35.9358,0.8454 46.2218,10.9174 46.5728,23.4744 C43.3178,23.9234 42.1298,21.0004 38.6318,21.6134 C38.9758,22.2344 39.2808,22.8804 39.5448,23.5474 C42.3338,23.2384 43.4828,25.7584 46.5478,25.4154 M23.2918,21.0114 C23.0088,21.0114 22.9458,20.9034 22.7528,20.9034 C22.5698,20.9064 22.2128,21.0514 22.1338,21.1884 C22.1398,21.2554 22.1658,21.3154 22.2138,21.3704 C22.6258,21.4324 22.8138,21.6614 23.2918,21.6614 C23.7708,21.6614 23.9568,21.4324 24.3708,21.3704 C24.4198,21.3154 24.4448,21.2554 24.4508,21.1884 C24.3728,21.0514 24.0148,20.9064 23.8308,20.9034 C23.6368,20.9034 23.5758,21.0114 23.2918,21.0114 M21.6018,22.4514 C21.6018,22.4514 21.4798,22.4934 21.4458,22.6044 C21.9338,22.9784 22.2728,23.8334 23.2918,23.8334 C24.3108,23.8334 24.6508,22.9784 25.1378,22.6044 C25.1048,22.4934 24.9838,22.4514 24.9838,22.4514 C24.9838,22.4514 24.3438,22.5994 23.2918,22.5994 C22.2408,22.5994 21.6018,22.4514 21.6018,22.4514 M25.6338,10.9164 C25.4298,10.8804 24.4468,10.7144 23.2918,10.7144 C22.1388,10.7144 21.1538,10.8804 20.9488,10.9164 C20.8328,10.9374 20.7878,10.8214 20.8768,10.7564 C20.9588,10.6964 23.2918,8.9204 23.2918,8.9204 C23.2918,8.9204 25.6248,10.6964 25.7068,10.7564 C25.7958,10.8214 25.7518,10.9374 25.6338,10.9164" id="Fill-4" fill="#00643B" mask="url(#mask-4)"></path>
                </g>
                <polygon id="Fill-7" fill="#55565A" points="37.3784 48.1543 37.0174 48.1543 37.0174 45.9003 36.1884 45.9003 36.1884 45.5863 38.2074 45.5863 38.2074 45.9003 37.3784 45.9003"></polygon>
                <polygon id="Fill-9" fill="#55565A" points="39.8872 47.5562 39.8952 47.5562 40.6582 45.5862 41.2202 45.5862 41.2202 48.1542 40.8582 48.1542 40.8582 46.0082 40.8502 46.0082 39.9942 48.1542 39.7642 48.1542 38.9082 46.0082 38.9022 46.0082 38.9022 48.1542 38.5502 48.1542 38.5502 45.5862 39.1152 45.5862"></polygon>
                <path d="M56.4653,36.2612 L58.0793,36.2612 C59.8343,36.2612 60.0733,36.8482 60.0733,37.4752 C60.0733,38.4542 59.3353,38.6312 57.8803,38.6312 L56.4653,38.6312 L56.4653,36.2612 Z M61.3453,41.6542 C63.1083,41.0982 64.1693,39.5512 64.1693,37.4982 C64.1693,35.3382 63.1683,32.7652 58.3963,32.7652 L52.9123,32.7652 C52.6763,32.7652 52.4833,32.9572 52.4833,33.1892 L52.4833,47.3662 C52.4833,47.6022 52.6763,47.7902 52.9123,47.7902 L56.0363,47.7902 C56.2763,47.7902 56.4653,47.6022 56.4653,47.3662 L56.4653,42.1252 L57.3183,42.1252 L60.1643,47.5592 C60.2363,47.7022 60.3843,47.7902 60.5413,47.7902 L64.2833,47.7902 C64.4403,47.7902 64.5823,47.7112 64.6583,47.5742 C64.7333,47.4382 64.7313,47.2782 64.6493,47.1452 L61.3453,41.6542 Z" id="Fill-11" fill="#55565A"></path>
                <path d="M78.9975,44.0522 L72.5615,44.0522 L72.5615,42.0252 L78.2785,42.0252 C78.5185,42.0252 78.7115,41.8372 78.7115,41.5992 L78.7115,38.7182 C78.7115,38.4822 78.5185,38.2902 78.2785,38.2902 L72.5615,38.2902 L72.5615,36.5032 L78.6415,36.5032 C78.8775,36.5032 79.0685,36.3102 79.0685,36.0752 L79.0685,33.1892 C79.0685,32.9572 78.8775,32.7662 78.6415,32.7662 L69.0085,32.7662 C68.7745,32.7662 68.5835,32.9572 68.5835,33.1892 L68.5835,47.3642 C68.5835,47.6022 68.7745,47.7902 69.0085,47.7902 L78.9975,47.7902 C79.2365,47.7902 79.4265,47.6022 79.4265,47.3642 L79.4265,44.4832 C79.4265,44.2452 79.2365,44.0522 78.9975,44.0522" id="Fill-13" fill="#55565A"></path>
                <path d="M103.1225,32.7651 L99.9635,32.7651 C99.7705,32.7651 99.5965,32.8981 99.5475,33.0851 L97.5175,41.0311 L95.0045,33.0621 C94.9445,32.8841 94.7815,32.7651 94.5965,32.7651 L91.6935,32.7651 C91.5085,32.7651 91.3435,32.8841 91.2895,33.0581 L88.7615,40.8051 L86.8415,33.0851 C86.7965,32.8981 86.6225,32.7651 86.4265,32.7651 L83.0225,32.7651 C82.8885,32.7651 82.7605,32.8251 82.6815,32.9391 C82.6005,33.0401 82.5775,33.1821 82.6145,33.3121 L86.8175,47.4871 C86.8745,47.6701 87.0395,47.7901 87.2275,47.7901 L89.9085,47.7901 C90.0985,47.7901 90.2615,47.6711 90.3185,47.4941 L93.0535,38.8991 L95.7895,47.4941 C95.8495,47.6711 96.0115,47.7901 96.1975,47.7901 L98.9785,47.7901 C99.1715,47.7901 99.3385,47.6701 99.3925,47.4821 L103.5345,33.3121 C103.5725,33.1821 103.5485,33.0401 103.4685,32.9391 C103.3865,32.8251 103.2585,32.7651 103.1225,32.7651" id="Fill-15" fill="#55565A"></path>
                <path d="M114.0078,41.2935 L111.7978,41.2935 L112.8948,38.4815 L114.0078,41.2935 Z M114.6698,33.0215 C114.5978,32.8625 114.4478,32.7645 114.2758,32.7645 L111.6948,32.7645 C111.5228,32.7645 111.3718,32.8625 111.2998,33.0215 L105.1718,47.1985 C105.1178,47.3285 105.1318,47.4815 105.2098,47.6005 C105.2888,47.7195 105.4218,47.7905 105.5668,47.7905 L109.0118,47.7905 C109.1858,47.7905 109.3448,47.6855 109.4088,47.5215 L110.4838,44.7905 L115.4118,44.7905 L116.5238,47.5245 C116.5918,47.6885 116.7458,47.7905 116.9218,47.7905 L120.4438,47.7905 C120.5858,47.7905 120.7218,47.7195 120.7978,47.6005 C120.8768,47.4815 120.8898,47.3285 120.8338,47.1955 L114.6698,33.0215 Z" id="Fill-17" fill="#55565A"></path>
                <path d="M128.4175,36.2612 L130.0315,36.2612 C131.7835,36.2612 132.0265,36.8482 132.0265,37.4752 C132.0265,38.4542 131.2885,38.6312 129.8325,38.6312 L128.4175,38.6312 L128.4175,36.2612 Z M133.3015,41.6542 C135.0575,41.0982 136.1255,39.5512 136.1255,37.4982 C136.1255,35.3382 135.1215,32.7652 130.3485,32.7652 L124.8695,32.7652 C124.6305,32.7652 124.4395,32.9572 124.4395,33.1892 L124.4395,47.3662 C124.4395,47.6022 124.6305,47.7902 124.8695,47.7902 L127.9915,47.7902 C128.2285,47.7902 128.4175,47.6022 128.4175,47.3662 L128.4175,42.1252 L129.2755,42.1252 L132.1185,47.5592 C132.1895,47.7022 132.3335,47.7902 132.4965,47.7902 L136.2375,47.7902 C136.3935,47.7902 136.5385,47.7112 136.6105,47.5742 C136.6865,47.4382 136.6845,47.2782 136.6055,47.1452 L133.3015,41.6542 Z" id="Fill-19" fill="#55565A"></path>
                <path d="M150.2456,40.1582 C150.2456,42.7782 148.7246,44.0522 145.5876,44.0522 L144.3936,44.0522 L144.3936,36.5022 L145.8076,36.5022 C147.9556,36.5022 150.2456,37.4622 150.2456,40.1582 M145.5276,32.7652 L140.8436,32.7652 C140.6056,32.7652 140.4136,32.9572 140.4136,33.1882 L140.4136,47.3662 C140.4136,47.6022 140.6056,47.7902 140.8436,47.7902 L145.9486,47.7902 C149.9916,47.7902 154.3446,45.4542 154.3446,40.3182 C154.3446,35.5182 151.1286,32.7652 145.5276,32.7652" id="Fill-21" fill="#55565A"></path>
                <g id="Group-25" transform="translate(157.000000, 32.154300)">
                    <mask id="mask-6" fill="white">
                        <use xlink:href="#path-5"></use>
                    </mask>
                    <g id="Clip-24"></g>
                    <path d="M7.2837,6.4224 C5.9357,6.0254 5.1137,5.7474 5.1137,5.0234 C5.1137,4.1714 6.3207,3.9864 6.7827,3.9864 C7.4407,3.9864 8.3157,4.2554 8.7117,4.7664 C8.7917,4.8624 8.9067,4.9214 9.0307,4.9264 C9.1567,4.9314 9.2797,4.8814 9.3637,4.7874 L11.5067,2.4484 C11.5807,2.3614 11.6237,2.2494 11.6187,2.1354 C11.6077,2.0194 11.5607,1.9134 11.4777,1.8384 C10.2777,0.7854 8.7227,0.2484 6.8477,0.2484 C2.8387,0.2484 1.0107,2.8574 1.0107,5.2824 C1.0107,8.3064 3.5297,9.1014 5.3667,9.6824 C6.7877,10.1314 7.6617,10.4474 7.6617,11.2084 C7.6617,11.9734 6.5967,12.2634 5.9257,12.2634 C5.0087,12.2634 4.0927,11.8134 3.5427,11.0904 C3.4677,10.9854 3.3467,10.9284 3.2207,10.9194 C3.0897,10.9184 2.9747,10.9664 2.8857,11.0574 L0.6667,13.5044 C0.5057,13.6784 0.5177,13.9454 0.6887,14.1044 C2.0477,15.3604 3.7507,16.0004 5.7467,16.0004 C9.3227,16.0004 11.6377,14.0044 11.6377,10.9074 C11.6377,7.7024 9.1227,6.9624 7.2837,6.4224" id="Fill-23" fill="#55565A" mask="url(#mask-6)"></path>
                </g>
                <path d="M61.4521,19.917 L59.0221,19.917 C58.8821,19.917 58.7561,20.006 58.7071,20.143 L57.3091,24.077 L55.9201,20.143 C55.8701,20.006 55.7491,19.917 55.6111,19.917 L53.1641,19.917 C52.9751,19.917 52.8271,20.067 52.8271,20.253 L52.8271,27.595 C52.8271,27.779 52.9751,27.923 53.1641,27.923 L54.7801,27.923 C54.9581,27.923 55.1101,27.779 55.1101,27.595 L55.1101,23.974 L56.3401,27.702 C56.3831,27.835 56.5131,27.923 56.6541,27.923 L57.8891,27.923 C58.0351,27.923 58.1611,27.835 58.2051,27.705 L59.5101,23.897 L59.5101,27.595 C59.5101,27.779 59.6581,27.923 59.8411,27.923 L61.4521,27.923 C61.6431,27.923 61.7881,27.779 61.7881,27.595 L61.7881,20.253 C61.7881,20.067 61.6431,19.917 61.4521,19.917" id="Fill-26" fill="#55565A"></path>
                <path d="M71.2031,19.917 L69.2821,19.917 C69.1671,19.917 69.0551,19.982 68.9991,20.077 L67.6461,22.341 L66.3661,20.087 C66.3071,19.984 66.1981,19.917 66.0771,19.917 L64.0651,19.917 C63.9451,19.917 63.8301,19.984 63.7691,20.09 C63.7171,20.196 63.7201,20.332 63.7811,20.431 L66.4941,24.561 L66.4941,27.595 C66.4941,27.779 66.6391,27.923 66.8231,27.923 L68.4391,27.923 C68.6271,27.923 68.7761,27.779 68.7761,27.595 L68.7761,24.561 L71.4771,20.431 C71.5431,20.332 71.5511,20.196 71.4931,20.09 C71.4361,19.984 71.3231,19.917 71.2031,19.917" id="Fill-28" fill="#55565A"></path>
                <path d="M81.7036,22.9316 C80.9866,22.7216 80.6606,22.5956 80.6606,22.3126 C80.6606,21.9686 81.2196,21.8906 81.4146,21.8906 C81.7256,21.8906 82.1376,22.0156 82.3196,22.2506 C82.3816,22.3276 82.4756,22.3686 82.5676,22.3766 C82.6736,22.3816 82.7616,22.3396 82.8296,22.2676 L83.9366,21.0576 C83.9996,20.9886 84.0336,20.9016 84.0286,20.8136 C84.0206,20.7256 83.9806,20.6426 83.9136,20.5856 C83.2826,20.0286 82.4316,19.7296 81.4426,19.7296 C79.9336,19.7296 78.3106,20.5806 78.3106,22.4506 C78.3106,24.0996 79.6566,24.5206 80.6416,24.8376 C81.3976,25.0766 81.7496,25.2176 81.7496,25.5206 C81.7496,25.8196 81.2916,25.9556 80.9646,25.9556 C80.5216,25.9556 80.0856,25.7406 79.8206,25.3936 C79.7616,25.3136 79.6666,25.2626 79.5696,25.2606 C79.4596,25.2556 79.3766,25.2946 79.3086,25.3696 L78.1516,26.6366 C78.0346,26.7636 78.0476,26.9766 78.1766,27.1016 C78.9016,27.7716 79.8126,28.1136 80.8716,28.1136 C82.7926,28.1136 84.0336,27.0336 84.0336,25.3636 C84.0336,23.6236 82.6826,23.2246 81.7036,22.9316" id="Fill-30" fill="#55565A"></path>
                <path d="M92.1123,19.917 L86.3013,19.917 C86.1163,19.917 85.9673,20.067 85.9673,20.253 L85.9673,21.682 C85.9673,21.866 86.1163,22.016 86.3013,22.016 L88.0663,22.016 L88.0663,27.595 C88.0663,27.779 88.2113,27.923 88.3963,27.923 L90.0153,27.923 C90.2003,27.923 90.3463,27.779 90.3463,27.595 L90.3463,22.016 L92.1123,22.016 C92.2953,22.016 92.4463,21.866 92.4463,21.682 L92.4463,20.253 C92.4463,20.067 92.2953,19.917 92.1123,19.917" id="Fill-32" fill="#55565A"></path>
                <path d="M97.664,24.3516 L96.481,24.3516 L97.067,22.8506 L97.664,24.3516 Z M98.111,20.1186 C98.054,19.9956 97.935,19.9176 97.802,19.9176 L96.46,19.9176 C96.331,19.9176 96.209,19.9956 96.154,20.1186 L92.984,27.4616 C92.944,27.5636 92.954,27.6816 93.012,27.7796 C93.073,27.8736 93.178,27.9226 93.286,27.9226 L95.073,27.9226 C95.208,27.9226 95.331,27.8446 95.38,27.7206 L95.911,26.3696 L98.312,26.3696 L98.864,27.7206 C98.916,27.8446 99.036,27.9226 99.17,27.9226 L100.995,27.9226 C101.111,27.9226 101.215,27.8736 101.273,27.7796 C101.333,27.6816 101.345,27.5606 101.304,27.4616 L98.111,20.1186 Z" id="Fill-34" fill="#55565A"></path>
                <path d="M105.7495,21.9536 L106.4745,21.9536 C107.4005,21.9536 107.4005,22.2706 107.4005,22.4706 C107.4005,22.8476 107.1695,22.9606 106.3725,22.9606 L105.7495,22.9606 L105.7495,21.9536 Z M108.3375,24.6946 C109.2175,24.3596 109.7435,23.5466 109.7435,22.4826 C109.7435,20.8266 108.6445,19.9176 106.6465,19.9176 L103.8015,19.9176 C103.6155,19.9176 103.4705,20.0666 103.4705,20.2526 L103.4705,27.5956 C103.4705,27.7796 103.6155,27.9216 103.8015,27.9216 L105.4205,27.9216 C105.6065,27.9216 105.7495,27.7796 105.7495,27.5956 L105.7495,24.9906 L106.0155,24.9906 L107.4595,27.7506 C107.5165,27.8566 107.6285,27.9216 107.7505,27.9216 L109.6895,27.9216 C109.8145,27.9216 109.9245,27.8606 109.9795,27.7566 C110.0405,27.6536 110.0405,27.5256 109.9755,27.4236 L108.3375,24.6946 Z" id="Fill-36" fill="#55565A"></path>
                <path d="M114.5459,24.8897 L115.4379,24.8897 C116.0839,24.8897 116.4109,25.0497 116.4109,25.3637 C116.4109,25.8427 115.8889,25.8907 115.6619,25.8907 L114.5459,25.8907 L114.5459,24.8897 Z M115.3819,22.8557 L114.5459,22.8557 L114.5459,21.9537 L115.3089,21.9537 C115.8089,21.9537 116.0659,22.0977 116.0659,22.3857 C116.0659,22.7897 115.6389,22.8557 115.3819,22.8557 Z M117.5929,23.6737 C118.0769,23.3037 118.3499,22.7587 118.3499,22.1187 C118.3499,20.6577 117.3349,19.9167 115.3279,19.9167 L112.5929,19.9167 C112.4069,19.9167 112.2619,20.0667 112.2619,20.2537 L112.2619,27.5947 C112.2619,27.7797 112.4069,27.9227 112.5929,27.9227 L115.6039,27.9227 C117.0959,27.9227 118.6899,27.3017 118.6899,25.5507 C118.6899,24.7157 118.2739,24.0327 117.5929,23.6737 Z" id="Fill-38" fill="#55565A"></path>
                <path d="M127.5723,19.917 L125.9613,19.917 C125.7733,19.917 125.6283,20.067 125.6283,20.253 L125.6283,24.699 C125.6283,25.433 125.1473,25.956 124.4843,25.956 C123.8203,25.956 123.3343,25.433 123.3343,24.699 L123.3343,20.253 C123.3343,20.067 123.1863,19.917 123.0033,19.917 L121.3833,19.917 C121.1983,19.917 121.0483,20.067 121.0483,20.253 L121.0483,24.764 C121.0483,26.799 122.3973,28.114 124.4843,28.114 C126.5633,28.114 127.9103,26.799 127.9103,24.764 L127.9103,20.253 C127.9103,20.067 127.7603,19.917 127.5723,19.917" id="Fill-40" fill="#55565A"></path>
                <path d="M136.2182,25.2329 C136.1412,25.1759 136.0482,25.1549 135.9632,25.1689 C135.8702,25.1849 135.7872,25.2359 135.7362,25.3139 C135.4612,25.7289 135.0312,25.9559 134.5002,25.9559 C133.5082,25.9559 132.7562,25.0799 132.7562,23.9179 C132.7562,22.7449 133.5132,21.8909 134.5522,21.8909 C135.0352,21.8909 135.4182,22.0529 135.6872,22.3689 C135.8052,22.5109 136.0112,22.5309 136.1532,22.4159 L137.3962,21.3959 C137.5372,21.2809 137.5612,21.0749 137.4502,20.9339 C136.8552,20.1819 135.8342,19.7309 134.7042,19.7309 C132.1782,19.7309 130.4112,21.4529 130.4112,23.9179 C130.4112,26.3939 132.1782,28.1139 134.7042,28.1139 C135.9192,28.1139 137.0092,27.5849 137.6332,26.6929 C137.7362,26.5519 137.7052,26.3489 137.5612,26.2369 L136.2182,25.2329 Z" id="Fill-42" fill="#55565A"></path>
                <path d="M144.1494,23.6699 L147.2044,20.4799 C147.2974,20.3839 147.3184,20.2429 147.2714,20.1199 C147.2184,20.0019 147.0944,19.9169 146.9624,19.9169 L144.8484,19.9169 C144.7544,19.9169 144.6674,19.9559 144.6074,20.0219 L142.3304,22.4539 L142.3304,20.2529 C142.3304,20.0669 142.1804,19.9169 141.9944,19.9169 L140.3764,19.9169 C140.1954,19.9169 140.0484,20.0669 140.0484,20.2529 L140.0484,27.5949 C140.0484,27.7789 140.1954,27.9229 140.3764,27.9229 L141.9944,27.9229 C142.1804,27.9229 142.3304,27.7789 142.3304,27.5949 L142.3304,25.0119 L144.7304,27.8089 C144.7924,27.8849 144.8844,27.9229 144.9804,27.9229 L147.2424,27.9229 C147.3714,27.9229 147.4944,27.8449 147.5504,27.7289 C147.5994,27.6089 147.5754,27.4649 147.4944,27.3719 L144.1494,23.6699 Z" id="Fill-44" fill="#55565A"></path>
                <path d="M152.6201,22.9316 C151.9111,22.7216 151.5761,22.5956 151.5761,22.3126 C151.5761,21.9686 152.1351,21.8906 152.3341,21.8906 C152.6421,21.8906 153.0601,22.0156 153.2461,22.2506 C153.3031,22.3276 153.3951,22.3686 153.4931,22.3766 C153.5861,22.3816 153.6831,22.3396 153.7481,22.2676 L154.8591,21.0576 C154.9161,20.9886 154.9471,20.9016 154.9461,20.8136 C154.9401,20.7256 154.8971,20.6426 154.8321,20.5856 C154.2111,20.0286 153.3461,19.7296 152.3661,19.7296 C150.8531,19.7296 149.2281,20.5806 149.2281,22.4506 C149.2281,24.0996 150.5731,24.5206 151.5641,24.8376 C152.3181,25.0766 152.6771,25.2176 152.6771,25.5206 C152.6771,25.8196 152.2111,25.9556 151.8831,25.9556 C151.4381,25.9556 151.0041,25.7406 150.7411,25.3936 C150.6791,25.3136 150.5911,25.2626 150.4931,25.2606 C150.3921,25.2556 150.2961,25.2946 150.2311,25.3696 L149.0801,26.6366 C148.9551,26.7636 148.9661,26.9766 149.0961,27.1016 C149.8291,27.7716 150.7311,28.1136 151.7951,28.1136 C153.7101,28.1136 154.9521,27.0336 154.9521,25.3636 C154.9521,23.6236 153.6051,23.2246 152.6201,22.9316" id="Fill-46" fill="#55565A"></path>
                <polygon id="Fill-48" fill="#55565A" points="184.2207 47.4351 183.8897 47.4351 183.8897 45.3721 183.1307 45.3721 183.1307 45.0841 184.9797 45.0841 184.9797 45.3721 184.2207 45.3721"></polygon>
                <polygon id="Fill-50" fill="#55565A" points="186.519 46.8882 186.525 46.8882 187.224 45.0842 187.74 45.0842 187.74 47.4352 187.408 47.4352 187.408 45.4702 187.401 45.4702 186.617 47.4352 186.406 47.4352 185.622 45.4702 185.616 45.4702 185.616 47.4352 185.294 47.4352 185.294 45.0842 185.811 45.0842"></polygon>
                <path d="M178.7471,39.3062 C178.6951,39.3062 178.6651,39.3342 178.6471,39.3822 C178.4571,39.8362 178.2911,40.2712 178.1341,40.6912 C177.9261,41.2402 177.7281,41.7562 177.4991,42.2872 C177.0131,42.2982 176.5401,42.2972 176.0871,42.2922 C175.5271,42.2872 174.9531,42.2842 174.3461,42.3012 C174.2971,42.3032 174.2531,42.3392 174.2351,42.3862 C174.2151,42.4362 174.2331,42.4882 174.2711,42.5202 C174.7211,42.9202 175.2251,43.3022 175.7161,43.6722 C176.0521,43.9302 176.4031,44.1972 176.7341,44.4642 L175.9021,47.3782 C175.8861,47.4272 175.9041,47.4782 175.9441,47.5102 C175.9661,47.5242 175.9931,47.5362 176.0161,47.5372 C176.0381,47.5372 176.0571,47.5302 176.0801,47.5192 C176.5731,47.2592 176.9751,46.9942 177.3571,46.7382 C177.8061,46.4432 178.2141,46.1602 178.7471,45.9062 C179.2801,46.1602 179.6871,46.4392 180.1381,46.7342 C180.5201,46.9912 180.9211,47.2552 181.4141,47.5162 C181.4381,47.5262 181.4551,47.5342 181.4781,47.5332 C181.5021,47.5322 181.5281,47.5212 181.5521,47.5062 C181.5901,47.4742 181.6091,47.4242 181.5931,47.3742 L180.7601,44.4612 C181.0911,44.1932 181.4421,43.9272 181.7771,43.6692 C182.2701,43.2992 182.7731,42.9172 183.2231,42.5162 C183.2631,42.4852 183.2811,42.4332 183.2581,42.3832 C183.2431,42.3352 183.1981,42.3002 183.1471,42.2972 C182.5421,42.2802 181.9671,42.2842 181.4071,42.2892 C180.9551,42.2942 180.4811,42.2952 179.9961,42.2842 C179.7661,41.7522 179.5681,41.2362 179.3591,40.6882 C179.2041,40.2682 179.0381,39.8322 178.8491,39.3782 C178.8301,39.3302 178.8001,39.3062 178.7471,39.3062" id="Fill-52" fill="#55565A"></path>
                <path d="M183.4248,27.1772 C183.3628,27.1762 183.3288,27.2092 183.3068,27.2652 C183.0878,27.7922 182.8938,28.2992 182.7128,28.7882 C182.4698,29.4262 182.2388,30.0252 181.9728,30.6442 C181.4088,30.6562 180.8568,30.6552 180.3308,30.6492 C179.6798,30.6432 179.0128,30.6392 178.3068,30.6592 C178.2498,30.6622 178.1988,30.7032 178.1788,30.7582 C178.1538,30.8172 178.1738,30.8772 178.2208,30.9142 C178.7438,31.3792 179.3278,31.8242 179.8998,32.2542 C180.2908,32.5542 180.6978,32.8632 181.0828,33.1742 L180.1168,36.5622 C180.0978,36.6202 180.1188,36.6792 180.1628,36.7172 C180.1908,36.7342 180.2218,36.7462 180.2498,36.7482 C180.2748,36.7482 180.2958,36.7392 180.3238,36.7282 C180.8958,36.4252 181.3638,36.1162 181.8078,35.8182 C182.3318,35.4752 182.8058,35.1472 183.4248,34.8522 C184.0438,35.1472 184.5178,35.4712 185.0418,35.8142 C185.4858,36.1132 185.9518,36.4212 186.5248,36.7232 C186.5538,36.7352 186.5738,36.7442 186.5988,36.7432 C186.6278,36.7422 186.6588,36.7302 186.6848,36.7122 C186.7298,36.6752 186.7508,36.6162 186.7328,36.5582 L185.7658,33.1712 C186.1508,32.8602 186.5578,32.5502 186.9488,32.2502 C187.5208,31.8202 188.1058,31.3752 188.6278,30.9102 C188.6748,30.8732 188.6948,30.8132 188.6698,30.7542 C188.6508,30.6992 188.5988,30.6582 188.5418,30.6552 C187.8368,30.6352 187.1678,30.6392 186.5178,30.6452 C185.9918,30.6512 185.4408,30.6522 184.8758,30.6402 C184.6098,30.0212 184.3798,29.4222 184.1358,28.7842 C183.9548,28.2952 183.7618,27.7892 183.5418,27.2622 C183.5198,27.2052 183.4858,27.1762 183.4248,27.1772" id="Fill-54" fill="#55565A"></path>
            </g>
            <g id="Page-1" transform="translate(53.000000, 0.000000)">
                <mask id="mask-8" fill="white">
                    <use xlink:href="#path-7"></use>
                </mask>
                <g id="Clip-2"></g>
                <path d="M37.445,8.7447 L41.476,8.7447 L41.476,7.9387 L37.445,7.9387 L37.445,8.7447 Z M37.445,6.7567 L41.476,6.7567 L41.476,5.9497 L37.445,5.9497 L37.445,6.7567 Z M37.445,4.8217 L41.476,4.8217 L41.476,4.0157 L37.445,4.0157 L37.445,4.8217 Z M37.445,2.8327 L41.476,2.8327 L41.476,2.0267 L37.445,2.0267 L37.445,2.8327 Z M35.746,10.3037 L35.114,10.3037 C34.887,10.3037 34.704,10.1197 34.704,9.8937 L34.704,9.1547 C34.704,8.9287 34.887,8.7447 35.114,8.7447 L35.153,8.7447 C35.38,8.7447 35.563,8.5607 35.563,8.3337 L35.563,0.9857 C35.563,0.7597 35.748,0.5757 35.974,0.5757 L42.946,0.5757 C43.173,0.5757 43.356,0.7597 43.356,0.9857 L43.356,8.3337 C43.356,8.5607 43.54,8.7447 43.767,8.7447 L43.86,8.7447 C44.086,8.7447 44.27,8.9287 44.27,9.1547 L44.27,9.8937 C44.27,10.1197 44.086,10.3037 43.86,10.3037 L41.207,10.3037 L39.881,10.3037 L39.084,10.3037 L35.746,10.3037 Z M32.5,12.4187 L32.5,8.2617 C32.5,7.8597 31.98,7.6967 31.754,8.0287 C31.664,8.1617 31.572,8.2927 31.479,8.4227 C31.479,8.2797 31.461,8.0647 31.425,7.7777 C31.327,6.9867 31.243,6.3487 31.174,5.8607 C31.163,5.7777 31.178,5.6947 31.217,5.6207 C32.091,3.9497 32.771,2.2207 33.257,0.4307 C33.316,0.2137 33.535,0.0827 33.752,0.1397 L34.839,0.4187 C35.061,0.4757 35.197,0.7027 35.135,0.9227 C34.937,1.6297 34.679,2.3487 34.361,3.0787 C34.339,3.1287 34.328,3.1837 34.328,3.2387 L34.328,12.4187 C34.328,12.6457 34.144,12.8297 33.917,12.8297 L32.911,12.8297 C32.684,12.8297 32.5,12.6457 32.5,12.4187 Z" id="Fill-1" fill="#55565A" mask="url(#mask-8)"></path>
                <path d="M57.7363,11.9386 C56.8303,10.7276 56.0653,9.7376 55.4413,8.9726 C55.2943,8.7916 55.3373,8.5246 55.5323,8.3966 L56.4333,7.8066 C56.5993,7.6976 56.8223,7.7306 56.9503,7.8816 C57.8273,8.9066 58.6433,9.8696 59.3973,10.7716 C59.5483,10.9526 59.5073,11.2226 59.3103,11.3526 L58.2693,12.0346 C58.0953,12.1486 57.8613,12.1056 57.7363,11.9386 M47.3663,6.8026 L47.9803,1.1866 C48.0013,0.9906 48.1663,0.8416 48.3633,0.8366 C51.6323,0.7636 54.7303,0.5966 57.6553,0.3346 C57.8353,0.3186 58.0013,0.4266 58.0593,0.5986 L58.4393,1.7036 C58.5223,1.9486 58.3553,2.2066 58.0973,2.2246 C55.8533,2.3836 53.2353,2.5276 50.2433,2.6566 C50.0473,2.6656 49.8843,2.8166 49.8643,3.0116 L49.6723,4.9806 C49.6493,5.2116 49.8313,5.4126 50.0643,5.4126 L52.0303,5.4126 C52.2473,5.4126 52.4243,5.2356 52.4243,5.0186 L52.4243,3.5496 C52.4243,3.3316 52.6003,3.1556 52.8183,3.1556 L54.1263,3.1556 C54.3433,3.1556 54.5203,3.3316 54.5203,3.5496 L54.5203,5.0186 C54.5203,5.2356 54.6963,5.4126 54.9143,5.4126 L58.6943,5.4126 C58.9123,5.4126 59.0883,5.5886 59.0883,5.8066 L59.0883,6.8456 C59.0883,7.0636 58.9123,7.2396 58.6943,7.2396 L54.9143,7.2396 C54.6963,7.2396 54.5203,7.4166 54.5203,7.6336 L54.5203,10.5186 C54.6273,11.9866 53.9463,12.7216 52.4783,12.7216 C52.1573,12.7526 51.5663,12.7716 50.7033,12.7746 C50.5163,12.7756 50.3543,12.6436 50.3163,12.4606 C50.2243,12.0286 50.1433,11.6576 50.0723,11.3496 C50.0143,11.0956 50.2143,10.8606 50.4743,10.8716 C50.8183,10.8866 51.1993,10.8946 51.6183,10.8946 C52.1913,10.9306 52.4593,10.6256 52.4243,9.9806 L52.4243,7.6336 C52.4243,7.4166 52.2473,7.2396 52.0303,7.2396 L47.7573,7.2396 C47.5233,7.2396 47.3403,7.0366 47.3663,6.8026 M47.8893,12.0416 C47.5513,11.7556 47.2383,11.5106 46.9483,11.3086 C46.7533,11.1716 46.7223,10.8996 46.8833,10.7246 C47.5283,10.0246 48.3003,9.0376 49.1983,7.7636 C49.3193,7.5926 49.5533,7.5416 49.7313,7.6526 L50.7783,8.3066 C50.9713,8.4276 51.0213,8.6886 50.8883,8.8726 C49.8923,10.2526 49.0763,11.2986 48.4393,12.0086 C48.2963,12.1686 48.0533,12.1806 47.8893,12.0416" id="Fill-3" fill="#55565A" mask="url(#mask-8)"></path>
                <path d="M71.5957,2.6539 L71.5957,9.3239 C71.5957,9.4529 71.6917,9.5639 71.8197,9.5749 C72.0397,9.5949 72.2697,9.6049 72.5097,9.6049 C73.0467,9.6409 73.2967,9.3359 73.2617,8.6909 C73.2617,7.8609 72.8617,6.9809 72.0597,6.0509 C72.0067,5.9879 71.9847,5.9029 72.0067,5.8219 L72.8527,2.7199 C72.8967,2.5599 72.7767,2.4029 72.6107,2.4029 L71.8457,2.4029 C71.7077,2.4029 71.5957,2.5149 71.5957,2.6539 Z M69.8227,12.6319 L69.8227,0.9339 C69.8227,0.7959 69.9347,0.6829 70.0727,0.6829 L74.5697,0.6829 C74.7077,0.6829 74.8207,0.7959 74.8207,0.9339 L74.8207,2.3649 C74.8207,2.3899 74.8167,2.4149 74.8087,2.4399 L73.7897,5.6999 C73.7627,5.7879 73.7877,5.8829 73.8517,5.9479 C74.6767,6.7869 75.0887,7.7919 75.0887,8.9599 C75.1237,10.5369 74.4617,11.3419 73.1007,11.3779 L71.9717,11.3779 C71.9357,11.3069 71.8997,11.1629 71.8647,10.9479 C71.7567,10.3399 71.6667,9.8919 71.5957,9.6049 L71.5957,12.6319 C71.5957,12.7709 71.4837,12.8829 71.3447,12.8829 L70.0727,12.8829 C69.9347,12.8829 69.8227,12.7709 69.8227,12.6319 Z M64.4477,10.5179 L67.0807,10.5179 L67.0807,8.9059 L64.4477,8.9059 L64.4477,10.5179 Z M65.9727,4.6929 C66.2487,4.2109 66.4887,3.7659 66.6907,3.3579 C66.7737,3.1899 66.6537,2.9939 66.4667,2.9939 L64.9187,2.9939 C64.7077,2.9939 64.5937,3.2369 64.7237,3.4029 C64.9027,3.6289 65.0767,3.8609 65.2457,4.0969 C65.3357,4.2229 65.2907,4.3999 65.1527,4.4689 L64.4477,4.8209 L65.7527,4.8209 C65.8437,4.8209 65.9277,4.7709 65.9727,4.6929 Z M62.6747,12.4709 L62.6747,7.5979 C62.6747,7.4599 62.7867,7.3469 62.9247,7.3469 L68.6037,7.3469 C68.7417,7.3469 68.8547,7.4599 68.8547,7.5979 L68.8547,12.3629 C68.8547,12.5019 68.7417,12.6139 68.6037,12.6139 L67.3317,12.6139 C67.1937,12.6139 67.0807,12.5019 67.0807,12.3629 L67.0807,12.2199 C67.0807,12.0819 66.9687,11.9689 66.8307,11.9689 L64.6987,11.9689 C64.5597,11.9689 64.4477,12.0819 64.4477,12.2199 L64.4477,12.4709 C64.4477,12.6099 64.3357,12.7219 64.1967,12.7219 L62.9247,12.7219 C62.7867,12.7219 62.6747,12.6099 62.6747,12.4709 Z M62.4587,2.7429 L62.4587,1.6329 C62.4587,1.4939 62.5717,1.3819 62.7097,1.3819 L64.4437,1.3819 C64.6077,1.3819 64.7307,1.2239 64.6867,1.0649 C64.6287,0.8559 64.5667,0.6519 64.4997,0.4509 C64.4487,0.2959 64.5537,0.1329 64.7167,0.1209 L66.2787,0.0009 C66.4007,-0.0091 66.5097,0.0709 66.5387,0.1899 C66.6197,0.5269 66.7107,0.8639 66.8107,1.2009 C66.8437,1.3079 66.9427,1.3819 67.0547,1.3819 L68.8187,1.3819 C68.9577,1.3819 69.0697,1.4939 69.0697,1.6329 L69.0697,2.7429 C69.0697,2.8819 68.9577,2.9939 68.8187,2.9939 L67.4037,2.9939 L68.3747,3.2779 C68.5337,3.3239 68.6047,3.5109 68.5157,3.6519 L68.0217,4.4369 C67.9167,4.6039 68.0367,4.8209 68.2337,4.8209 L69.1407,4.8209 C69.2797,4.8209 69.3917,4.9339 69.3917,5.0719 L69.3917,6.1829 C69.3917,6.3209 69.2797,6.4339 69.1407,6.4339 L62.3337,6.4339 C62.1957,6.4339 62.0827,6.3209 62.0827,6.1829 L62.0827,5.0719 C62.0827,4.9339 62.1957,4.8209 62.3337,4.8209 L63.1647,4.8209 C63.3667,4.8209 63.4897,4.5949 63.3747,4.4289 C63.2247,4.2129 63.0707,3.9959 62.9117,3.7799 C62.8187,3.6529 62.8637,3.4699 63.0077,3.4039 L63.9097,2.9939 L62.7097,2.9939 C62.5717,2.9939 62.4587,2.8819 62.4587,2.7429 Z" id="Fill-4" fill="#55565A" mask="url(#mask-8)"></path>
                <path d="M35.9346,12.8937 C35.6576,12.6597 35.4006,12.4587 35.1636,12.2917 C35.0036,12.1807 34.9776,11.9577 35.1096,11.8137 C35.6386,11.2407 36.2716,10.4317 37.0076,9.3867 C37.1066,9.2467 37.2986,9.2047 37.4446,9.2957 L38.3026,9.8317 C38.4606,9.9307 38.5016,10.1447 38.3926,10.2957 C37.5766,11.4277 36.9076,12.2847 36.3856,12.8667 C36.2676,12.9977 36.0686,13.0077 35.9346,12.8937" id="Fill-5" fill="#55565A" mask="url(#mask-8)"></path>
                <path d="M42.7144,12.8121 C41.9764,11.8261 41.3544,11.0211 40.8464,10.3981 C40.7264,10.2511 40.7614,10.0341 40.9204,9.9291 L41.6534,9.4491 C41.7894,9.3601 41.9704,9.3881 42.0744,9.5101 C42.7884,10.3441 43.4514,11.1281 44.0664,11.8621 C44.1894,12.0091 44.1544,12.2291 43.9944,12.3341 L43.1484,12.8901 C43.0064,12.9831 42.8164,12.9481 42.7144,12.8121" id="Fill-6" fill="#55565A" mask="url(#mask-8)"></path>
                <path d="M5.4673,6.5958 C5.4673,6.6968 5.3843,6.7798 5.2833,6.7798 L3.0663,6.7798 C2.9653,6.7798 2.9103,6.7018 2.9453,6.6068 L3.0133,6.4098 C3.0483,6.3148 2.9973,6.2158 2.9003,6.1878 L2.1143,5.9678 C2.0173,5.9408 2.0203,5.9188 2.1213,5.9188 L5.2833,5.9188 C5.3843,5.9188 5.4673,6.0008 5.4673,6.1018 L5.4673,6.5958 Z M5.4673,8.8198 C5.4673,8.9208 5.3843,9.0038 5.2833,9.0038 L1.8713,9.0038 C1.7703,9.0038 1.7353,8.9358 1.7933,8.8528 L2.0783,8.4098 C2.1313,8.3238 2.2573,8.2528 2.3583,8.2528 L5.2833,8.2528 C5.3843,8.2528 5.4673,8.3358 5.4673,8.4368 L5.4673,8.8198 Z M2.7433,4.4448 L9.5943,4.4448 L9.5943,3.8478 L2.7433,3.8478 L2.7433,4.4448 Z M2.7433,2.4988 L9.5943,2.4988 L9.5943,1.8458 L2.7433,1.8458 L2.7433,2.4988 Z M12.0103,11.2268 L7.2773,11.2268 C7.1753,11.2268 7.0933,11.1438 7.0933,11.0428 L7.0933,10.6598 C7.0933,10.5588 7.1753,10.4758 7.2773,10.4758 L10.9823,10.4758 C11.0833,10.4758 11.1653,10.3938 11.1653,10.2928 L11.1653,9.1868 C11.1653,9.0858 11.0833,9.0038 10.9823,9.0038 L7.2773,9.0038 C7.1753,9.0038 7.0933,8.9208 7.0933,8.8198 L7.0933,8.4368 C7.0933,8.3358 7.1753,8.2528 7.2773,8.2528 L11.4113,8.2528 C11.5123,8.2528 11.5953,8.1708 11.5953,8.0698 L11.5953,6.9638 C11.5953,6.8618 11.5123,6.7798 11.4113,6.7798 L7.2773,6.7798 C7.1753,6.7798 7.0933,6.6968 7.0933,6.5958 L7.0933,6.1018 C7.0933,6.0008 7.1753,5.9188 7.2773,5.9188 L10.9823,5.9188 C11.0833,5.9188 11.1653,5.8358 11.1653,5.7348 L11.1653,0.5558 C11.1653,0.4558 11.0833,0.3728 10.9823,0.3728 L1.3573,0.3728 C1.2563,0.3728 1.1743,0.4558 1.1743,0.5558 L1.1743,5.7348 C1.1743,5.8358 1.2483,5.9188 1.3403,5.9188 C1.4313,5.9188 1.4723,5.9938 1.4303,6.0858 C1.4303,6.0858 1.1593,6.6818 0.8823,7.1138 C0.6033,7.5858 0.0443,8.2128 0.0443,8.2128 C-0.0227,8.2878 -0.0127,8.4008 0.0673,8.4628 L1.1953,9.3358 C1.2753,9.3978 1.3863,9.3838 1.4093,9.3578 C1.4323,9.3298 1.4513,9.3908 1.4513,9.4918 L1.4513,10.2928 C1.4513,10.3938 1.5333,10.4758 1.6343,10.4758 L5.2833,10.4758 C5.3843,10.4758 5.4673,10.5588 5.4673,10.6598 L5.4673,11.0428 C5.4673,11.1438 5.3843,11.2268 5.2833,11.2268 L0.3283,11.2268 C0.2283,11.2268 0.1453,11.3098 0.1453,11.4098 L0.1453,12.4608 C0.1453,12.5618 0.2283,12.6448 0.3283,12.6448 L12.0103,12.6448 C12.1113,12.6448 12.1943,12.5618 12.1943,12.4608 L12.1943,11.4098 C12.1943,11.3098 12.1113,11.2268 12.0103,11.2268 Z" id="Fill-7" fill="#55565A" mask="url(#mask-8)"></path>
                <path d="M15.2354,2.4528 L27.3534,2.4528 C27.4544,2.4528 27.5374,2.3698 27.5374,2.2688 L27.5374,1.2038 C27.5374,1.1028 27.4544,1.0198 27.3534,1.0198 L22.3824,1.0198 C22.2814,1.0198 22.1594,0.9478 22.1114,0.8578 L21.7744,0.2488 C21.7244,0.1608 21.6014,0.0958 21.5014,0.1038 L19.8374,0.2418 C19.7364,0.2488 19.7014,0.3238 19.7594,0.4068 L20.0604,0.8618 C20.1114,0.9488 20.0714,1.0198 19.9704,1.0198 L15.2354,1.0198 C15.1344,1.0198 15.0514,1.1028 15.0514,1.2038 L15.0514,2.2688 C15.0514,2.3698 15.1344,2.4528 15.2354,2.4528" id="Fill-8" fill="#55565A" mask="url(#mask-8)"></path>
                <path d="M27.5063,9.0709 L23.2853,9.0709 C23.1843,9.0709 23.1793,9.0439 23.2753,9.0089 L25.9233,7.9629 C26.0153,7.9229 26.0913,7.8069 26.0913,7.7059 L26.0913,6.9329 C26.0913,6.8319 26.0083,6.7489 25.9073,6.7489 L16.2353,6.7489 C16.1343,6.7489 16.0523,6.8319 16.0523,6.9329 L16.0523,7.9689 C16.0523,8.0709 16.1343,8.1539 16.2353,8.1539 L22.6263,8.1539 C22.7273,8.1539 22.7303,8.1769 22.6343,8.2069 L20.9313,8.6679 C20.8333,8.6919 20.7523,8.7879 20.7523,8.8839 C20.7523,8.9789 20.6703,9.0579 20.5693,9.0579 L15.0953,9.0579 C14.9953,9.0579 14.9123,9.1399 14.9123,9.2409 L14.9123,10.3889 C14.9123,10.4899 14.9953,10.5719 15.0953,10.5719 L20.5693,10.5719 C20.6703,10.5719 20.7523,10.6449 20.7523,10.7329 C20.7523,10.8209 20.7243,10.9709 20.6913,11.0659 L20.4683,11.2689 C20.3723,11.2999 20.2103,11.3209 20.1103,11.3169 L18.7253,11.2609 C18.6243,11.2569 18.5553,11.3359 18.5733,11.4349 L18.7873,12.6449 C18.8053,12.7439 18.9023,12.8259 19.0033,12.8259 L20.9443,12.8259 C21.0453,12.8259 21.2103,12.8179 21.3113,12.8069 C21.3113,12.8069 22.1983,12.7189 22.3933,12.5059 C22.5883,12.2929 22.6683,11.4229 22.6683,11.4229 C22.6773,11.3229 22.6853,11.1579 22.6853,11.0569 L22.6853,10.7709 C22.6853,10.6699 22.7683,10.5879 22.8683,10.5879 L27.5063,10.5879 C27.6073,10.5879 27.6903,10.5049 27.6903,10.4039 L27.6903,9.2549 C27.6903,9.1539 27.6073,9.0709 27.5063,9.0709" id="Fill-9" fill="#55565A" mask="url(#mask-8)"></path>
                <path d="M18.36,4.9827 L24.256,4.9827 L24.256,4.2037 L18.36,4.2037 L18.36,4.9827 Z M16.695,2.9677 C16.594,2.9677 16.511,3.0497 16.511,3.1507 L16.511,6.0507 C16.511,6.1517 16.594,6.2347 16.695,6.2347 L25.922,6.2347 C26.023,6.2347 26.106,6.1517 26.106,6.0507 L26.106,3.1507 C26.106,3.0497 26.023,2.9677 25.922,2.9677 L16.695,2.9677 Z" id="Fill-10" fill="#55565A" mask="url(#mask-8)"></path>
            </g>
        </g>
    </g>
</svg>